<?xml version="1.0" encoding="utf-8"?>
<!-- Generator: Adobe Illustrator 16.0.4, SVG Export Plug-In . SVG Version: 6.00 Build 0)  -->
<!DOCTYPE svg PUBLIC "-//W3C//DTD SVG 1.1//EN" "http://www.w3.org/Graphics/SVG/1.1/DTD/svg11.dtd">
<svg version="1.1" id="Layer_1" xmlns="http://www.w3.org/2000/svg" xmlns:xlink="http://www.w3.org/1999/xlink" x="0px" y="0px"
	 width="90px" height="35px" viewBox="0 0 90 35" enable-background="new 0 0 90 35" xml:space="preserve">
<g>
	<path id="svg_25" fill="#E6E6E6" stroke="#E6E6E6" stroke-miterlimit="10" d="M45.774,1.503c-0.139,0.015-0.283,0.082-0.445,0.222
		c-0.307,0.331-0.57,0.682-0.753,1.098c-0.333,0.683-0.641,1.377-0.97,2.062c-0.425,0.922-0.868,1.844-1.425,2.697
		c-0.449,0.65-0.923,1.285-1.522,1.812c-0.229,0.223-0.547,0.453-0.673,0.725c-0.094,0.203,0.264,0.534,0.465,0.435
		c0.283-0.142,0.5-0.455,0.716-0.696c0.501-0.66,0.878-1.398,1.269-2.125c0.49-0.899,0.985-1.8,1.49-2.69
		c0.352-0.665,0.759-1.294,1.197-1.905c0.178-0.3,0.435-0.506,0.706-0.707c0.209,0.255,0.306,0.592,0.427,0.896
		c0.17,0.435,0.308,0.879,0.434,1.327c0.12,0.447,0.394,0.629,0.802,0.788C47.752,5.495,48,5.419,48.252,5.36
		c0.026-0.024,0.03-0.024,0.039-0.034c-0.014,0.015-0.016,0.024,0.058-0.023c0.644,0.348,1.172,0.844,1.674,1.364
		c0.613,0.673,1.079,1.449,1.485,2.254c0.185,0.314,0.298,0.648,0.375,0.99c-0.068,0.014-0.138,0.026-0.207,0.039
		c-0.527,0.167-0.562,0.552-0.448,1.015c0.066,0.214,0.144,0.424,0.234,0.628c-0.12-0.043-0.236-0.088-0.355-0.131
		c-0.314-0.099-0.635-0.109-0.96-0.105c-0.354-0.003-0.615,0.139-0.888,0.341c-0.113,0.136-0.241,0.254-0.368,0.375
		c-0.134,0.082-0.298,0.054-0.45,0.061c-0.454-0.055-0.908-0.078-1.364-0.07c-0.55,0.188-0.681,0.664-0.894,1.147
		c-0.189,0.482-0.507,0.843-0.896,1.173c-0.279,0.206-0.589,0.199-0.91,0.216c-0.26-0.066-0.346-0.269-0.486-0.47
		c-0.151-0.283-0.25-0.587-0.365-0.885c-0.13-0.422-0.397-0.727-0.704-1.032c-0.431-0.325-0.898-0.328-1.413-0.315
		c-0.348,0.038-0.692,0.09-1.041,0.124c0.005-0.065-0.172-0.223-0.226-0.29c-0.233-0.235-0.497-0.264-0.811-0.287
		c-0.005,0-0.009,0.002-0.013,0.002c-0.001,0-0.003,0-0.005,0c-0.123-0.02-0.227-0.011-0.28,0.038
		c-0.174,0.055-0.277,0.171-0.424,0.363c-0.011,0.014-0.006,0.033,0.005,0.046c0.069,0.079,0.131,0.148,0.195,0.204
		c-0.06,0.105-0.124,0.207-0.181,0.308c-0.41,0.656-0.918,1.245-1.44,1.816c-0.703,0.771-1.451,1.498-2.182,2.243
		c-0.733,0.765-1.507,1.494-2.268,2.231c-0.754,0.698-1.502,1.403-2.263,2.095c-0.729,0.709-1.486,1.388-2.244,2.067
		c-0.806,0.762-1.657,1.471-2.54,2.142c-0.703,0.473-1.418,0.925-2.151,1.349c-1.021,1.062,0.244,1.531,1.267,1.255
		c1.231-0.423,2.479-0.757,3.764-0.97c0.647-0.095,1.299-0.174,1.949-0.174c-0.266,0.498-0.559,0.979-0.796,1.493
		c-0.417,0.914-0.046,1.665,0.968,1.825c0.863-0.134,1.694-0.408,2.555-0.565c0.687-0.092,1.376-0.125,2.064-0.182
		c0.76-0.084,1.518-0.172,2.283-0.194c0.364-0.043,0.711-0.013,1.037,0.072c-0.016,0.032-0.026,0.056-0.045,0.098
		c-0.359,0.556-0.738,1.068-0.716,1.748c0.282,0.893,1.082,0.686,1.775,0.441c0.553-0.218,1.128-0.323,1.718-0.353
		c0.165,0.081,0.208,0.159,0.325,0.334c0.338,0.462,0.806,0.774,1.297,1.061c0.44,0.25,0.907,0.379,1.391,0.437
		c-0.085,0.034-0.167,0.067-0.251,0.103c-0.397,0.236-0.69,0.512-1.122,0.679c-0.016,0.007,0.002,0.052,0.019,0.045
		c0.426-0.165,0.818-0.159,1.272-0.212c0.963-0.216,1.922-0.465,2.91-0.557c0.817-0.085,1.668-0.027,2.45-0.313
		c0.621-0.315,0.796-0.774,0.55-1.416c-0.131-0.385-0.26-0.7,0.102-0.947c0.385-0.273,0.826-0.454,1.301-0.545
		c1.302-0.35,2.613-0.662,3.947-0.872c1.62-0.243,3.258-0.413,4.885-0.103c0.235,0.036,0.597,0.088,0.926,0.164
		c0.114,0.237,0.286,0.388,0.48,0.559c0.286,0.197,0.601,0.188,0.931,0.198c0.944-0.032,1.194-1.399,0.454-1.927
		c-0.094-0.02-0.188-0.035-0.285-0.046c0.005,0.004,0.011,0.006,0.015,0.011c-0.014-0.005-0.026-0.011-0.04-0.016
		c-0.212-0.022-0.426-0.025-0.644-0.016c0.072-0.056,0.171-0.088,0.292-0.091c0.045,0.01,0.09,0.014,0.136,0.02
		c-0.01-0.006-0.022-0.011-0.031-0.019c-0.307-0.188-0.61-0.377-0.863-0.637c-0.484-0.489-0.93-1.003-1.378-1.522
		c-0.667-0.855-1.339-1.708-1.866-2.659c-0.751-1.224-1.479-2.458-2.191-3.705c-0.693-1.264-1.353-2.545-2.076-3.793
		c-0.529-0.928-1.091-1.836-1.618-2.765c-0.228-0.423-0.414-0.869-0.475-1.344c0.064-0.017,0.128-0.034,0.192-0.054
		c0.431-0.229,0.678-0.522,0.457-1.016c-0.31-0.408-0.678-0.764-0.991-1.17c-0.562-0.725-1.08-1.48-1.647-2.203
		c-0.462-0.587-0.953-1.153-1.354-1.784c-0.278-0.273-0.481-0.458-0.901-0.362c-0.09,0.02-0.172,0.057-0.265,0.059
		c-0.073-0.034-0.188-0.03-0.218-0.104c-0.236-0.381-0.437-0.777-0.568-1.208c-0.127-0.444-0.215-0.91-0.43-1.323
		C46.224,1.6,46.004,1.479,45.774,1.503L45.774,1.503L45.774,1.503z"/>
	<g>
		<path fill="#E6E6E6" stroke="#E6E6E6" stroke-miterlimit="10" d="M12.084,22.933H9.113V10.791H3.339V7.933h14.52v2.858h-5.775
			V22.933z"/>
		<path fill="#E6E6E6" stroke="#E6E6E6" stroke-miterlimit="10" d="M27.284,17.074h-4.302v5.858h-2.973v-15h8.604
			c0.962,0,2.492,0.141,3.624,1.273c1.019,1.019,1.217,2.376,1.217,3.395c0,0.849-0.142,1.841-0.849,2.747
			c-0.479,0.623-1.245,1.161-2.094,1.472l3.566,6.113h-3.339L27.284,17.074z M29.916,13.735c0.34-0.34,0.481-0.849,0.481-1.33
			c0-0.708-0.34-1.132-0.623-1.331c-0.424-0.283-1.019-0.283-1.585-0.283h-5.207v3.397h5.434
			C28.926,14.188,29.491,14.159,29.916,13.735z"/>
	</g>
	<g>
		<path fill="#E6E6E6" stroke="#E6E6E6" stroke-miterlimit="10" d="M61.135,15.517l-2.575,2.18v5.236h-2.972v-15h2.972v6.198
			l7.216-6.198h3.934l-6.368,5.604l6.765,9.396h-3.624L61.135,15.517z"/>
		<path fill="#E6E6E6" stroke="#E6E6E6" stroke-miterlimit="10" d="M79.869,17.074h-4.301v5.858h-2.972v-15H81.2
			c0.961,0,2.49,0.142,3.621,1.273c1.019,1.021,1.218,2.378,1.218,3.398c0,0.848-0.142,1.839-0.85,2.746
			c-0.481,0.622-1.246,1.16-2.095,1.471l3.566,6.113h-3.338L79.869,17.074z M82.501,13.735c0.339-0.34,0.48-0.849,0.48-1.33
			c0-0.708-0.339-1.132-0.623-1.331c-0.423-0.283-1.019-0.283-1.584-0.283h-5.207v3.396H81
			C81.51,14.188,82.076,14.159,82.501,13.735z"/>
	</g>
</g>
</svg>
